<?xml version="1.0" encoding="utf-8"?>
<!-- Generator: Adobe Illustrator 18.0.0, SVG Export Plug-In . SVG Version: 6.00 Build 0)  -->
<!DOCTYPE svg PUBLIC "-//W3C//DTD SVG 1.1//EN" "http://www.w3.org/Graphics/SVG/1.1/DTD/svg11.dtd">
<svg version="1.1" xmlns="http://www.w3.org/2000/svg" xmlns:xlink="http://www.w3.org/1999/xlink" x="0px" y="0px"
	 viewBox="0 0 298 298" enable-background="new 0 0 298 298" xml:space="preserve">
<g id="color">
	<linearGradient id="SVGID_1_" gradientUnits="userSpaceOnUse" x1="31.1301" y1="320.0873" x2="323.0718" y2="27.4265">
		<stop  offset="0" style="stop-color:#488EFF"/>
		<stop  offset="1" style="stop-color:#48E2FF"/>
	</linearGradient>
	<path fill="url(#SVGID_1_)" d="M146.833,0.908L67.102,58.91c-0.517,0.376-0.823,0.978-0.823,1.619v75.017
		c0,1.635,1.848,2.579,3.166,1.617l28.551-20.834c0.699-0.51,1.646-0.51,2.345,0l63.785,46.545c0.516,0.376,0.821,0.978,0.821,1.617
		v97.982c0,1.105-0.892,2-1.993,2H134.05c-1.101,0-1.993-0.895-1.993-2l0-80.982c0-0.64-0.305-1.241-0.821-1.617l-30.896-22.545
		c-0.699-0.51-1.646-0.51-2.345,0l-30.896,22.545c-0.516,0.376-0.821,0.978-0.821,1.617v80.982c0,1.105-0.892,2-1.993,2H35.383
		c-1.101,0-1.993-0.895-1.993-2V87.355c0-1.633-1.845-2.578-3.163-1.619L1.323,106.762c-0.517,0.376-0.823,0.978-0.823,1.619
		l0,187.092c0,1.105,0.892,2,1.993,2h293.013c1.101,0,1.993-0.895,1.993-2l0-185.643c0-0.641-0.306-1.243-0.823-1.619L149.174,0.908
		C148.476,0.4,147.531,0.4,146.833,0.908z M230.725,262.473l0-80.982c0-0.64-0.305-1.241-0.821-1.617l-58.215-42.479
		c-1.095-0.799-1.094-2.439,0.002-3.236l24.798-18.046c0.699-0.509,1.646-0.508,2.344,0.003l63.962,46.759
		c0.515,0.376,0.819,0.977,0.819,1.616l0,97.983c0,1.105-0.892,2-1.993,2h-28.903C231.617,264.473,230.725,263.578,230.725,262.473z
		"/>
</g>
<g id="colors">
</g>
<g id="black">
</g>
<g id="white">
</g>
</svg>
